<svg xmlns="http://www.w3.org/2000/svg" xmlns:xlink="http://www.w3.org/1999/xlink" width="102" height="103" viewBox="0 0 102 103">
  <defs>
    <clipPath id="clip-Logo">
      <rect width="102" height="103"/>
    </clipPath>
  </defs>
  <g id="Logo" clip-path="url(#clip-Logo)">
    <g id="Group_106" data-name="Group 106" transform="translate(-3030 -1701)">
      <circle id="Ellipse_113" data-name="Ellipse 113" cx="50.289" cy="50.289" r="50.289" transform="translate(3030.576 1702)" fill="#f99f00"/>
      <path id="Trazado_1" data-name="Trazado 1" d="M217.343,80.274a15.108,15.108,0,0,0,7.611,13.281,15.865,15.865,0,0,0,8.206,2.139,18.163,18.163,0,0,0,7.212-1.344,19.593,19.593,0,0,0,6.218-4.526,5.6,5.6,0,0,1,.846-.745,1.492,1.492,0,0,1,.745-.15h1.294q1.093,0,1.093,1.99a27.267,27.267,0,0,1-3.431,13.578,25.587,25.587,0,0,1-9.7,9.749,28.049,28.049,0,0,1-14.323,3.631,29.322,29.322,0,0,1-13.827-3.233,24.338,24.338,0,0,1-9.749-9.2,26.351,26.351,0,0,1-3.581-13.827,26.042,26.042,0,0,1,3.581-13.578,25.412,25.412,0,0,1,10.3-9.55A32.752,32.752,0,0,1,225.3,64.955a31.848,31.848,0,0,1,11.191,1.84,18.329,18.329,0,0,1,7.809,5.273,12.522,12.522,0,0,1-.945,17.011,13.669,13.669,0,0,1-9.8,3.631,13.152,13.152,0,0,1-9.4-3.631,11.8,11.8,0,0,1-3.83-8.9,8.3,8.3,0,0,1,2.686-6.366,9.7,9.7,0,0,1,6.864-2.486,1.923,1.923,0,0,0,.3-1q0-1.392-2.089-1.392a10.1,10.1,0,0,0-7.56,3.332A11.18,11.18,0,0,0,217.343,80.274Z" transform="translate(2857.604 1660.135)" fill="#2961ff"/>
    </g>
  </g>
</svg>
